<svg id="Layer_1" xmlns="http://www.w3.org/2000/svg" viewBox="0 0 120 68.8"><style>.st0{fill:#9a9a9a}</style><path class="st0" d="M111.1 27.5v-4.8h-10.7v10.9l-9 5.1h-.1V.3h9v14.4H111V.3h9v22.1l-8.9 5.1zm-34.2-2.3v3c0 2-1.5 2.8-3.3 2.8h-4.1c-1.8 0-3.3-.8-3.3-2.8V10.8c0-2 1.5-2.8 3.3-2.8h4.1c1.8 0 3.3.8 3.3 2.8v2.9h9V8.8c0-4.5-4-8.8-11.2-8.8H69c-7.6 0-11.7 4.3-11.7 8.8v21.4c0 4.5 4.2 8.8 11.7 8.8h5.8C82 39 86 34.7 86 30.2v-5.1l-9.1.1zm-31 13.5V8.4h8V.3H28.1v8.1H37v30.3h8.9zM9 8.7l-9 5.1v24.8h24.5v-8.1H9v-7.2h13v-8.1H9V8.7zM23.8.3l-14.2 8H24v-8h-.2zM0 48.8h10c1.5 0 2.7.3 3.7.9 1.1.6 1.9 1.4 2.4 2.4.6 1 .8 2.1.8 3.3s-.2 2.4-.8 3.3c-.6 1-1.3 1.8-2.4 2.4s-2.2.9-3.7.9H5.1v6.7H0V48.8zm11.1 4.8c-.5-.4-1.1-.6-1.8-.6H5.1v5h4.1c.7 0 1.3-.2 1.7-.7.5-.5.7-1.1.7-1.9.1-.7-.1-1.3-.5-1.8zM35 48.8h5.1v15.9h8v4.1H35v-20zM79.7 66h-7.9l-1 2.8H65l7.5-20H79l7.6 20h-5.9l-1-2.8zm-6.6-4.1h5.2l-2.5-7.5-2.7 7.5zM107.3 60.8l-7.6-11.9h5.8l4.3 7.4 4.3-7.4h5.9l-7.6 11.9v8h-5.1v-8z"/></svg>